<?xml version="1.0" encoding="utf-8"?>
<!-- Generator: Adobe Illustrator 16.0.0, SVG Export Plug-In . SVG Version: 6.00 Build 0)  -->
<!DOCTYPE svg PUBLIC "-//W3C//DTD SVG 1.1//EN" "http://www.w3.org/Graphics/SVG/1.1/DTD/svg11.dtd">
<svg version="1.1" id="Layer_1" xmlns="http://www.w3.org/2000/svg" xmlns:xlink="http://www.w3.org/1999/xlink" x="0px" y="0px"
	 width="165px" height="50px" viewBox="0 0 165 50" enable-background="new 0 0 165 50" xml:space="preserve">
<g>
	<path fill="#D33593" d="M91.34,20.969h56.344c1.551,0,2.822,1.305,2.822,2.898v0.001c0,1.594-1.271,2.899-2.822,2.899H146.9h-1.436
		c-1.006,0-1.83,0.847-1.83,1.881c0,1.033,0.824,1.879,1.83,1.879h1.436v8.824h-6.424v-7.398c0-1.034-0.824-1.88-1.832-1.88
		s-1.83,0.846-1.83,1.88v7.398h-6.594v-8.824h1.715c1.008,0,1.832-0.846,1.832-1.879c0-1.034-0.824-1.881-1.832-1.881h-1.715h-6.678
		H91.34V20.969L91.34,20.969z"/>
	
		<linearGradient id="SVGID_1_" gradientUnits="userSpaceOnUse" x1="364.5117" y1="-371.7529" x2="364.5117" y2="-334.5957" gradientTransform="matrix(1 0 0 -1 -288.5 -327.5)">
		<stop  offset="0" style="stop-color:#D33593"/>
		<stop  offset="0.3633" style="stop-color:#D03491"/>
		<stop  offset="0.5177" style="stop-color:#C9338D"/>
		<stop  offset="0.6324" style="stop-color:#BE3289"/>
		<stop  offset="0.7276" style="stop-color:#AE3284"/>
		<stop  offset="0.8106" style="stop-color:#9B2E7C"/>
		<stop  offset="0.8851" style="stop-color:#852B73"/>
		<stop  offset="0.9518" style="stop-color:#6C296A"/>
		<stop  offset="1" style="stop-color:#572762"/>
	</linearGradient>
	<path fill="url(#SVGID_1_)" d="M61.765,15.086c0.043,0.196,0.083,0.393,0.119,0.589l0,0l0.376,2.049l-2.145,0.175
		c-0.594,1.261-1.046,2.604-1.34,4.008c1.189,1.13,2.174,2.439,2.929,3.919l0,0c0.909,1.757,1.378,3.666,1.457,5.65l0,0l0.001,0.039
		v0.037c0,1.863-0.265,3.695-0.832,5.458l0,0c3.197,4.005,8.052,6.56,13.486,6.56l0,0c9.625,0,17.432-8.014,17.432-17.895l0,0
		c0-9.883-7.809-17.897-17.432-17.897l0,0C70.05,7.779,64.938,10.657,61.765,15.086L61.765,15.086z M68.393,25.676
		c0-4.208,3.325-7.621,7.423-7.621l0,0c4.1,0,7.422,3.413,7.422,7.621l0,0c0,4.207-3.322,7.619-7.422,7.619l0,0
		C71.718,33.295,68.393,29.883,68.393,25.676L68.393,25.676z"/>
	<path fill="#FFFFFF" d="M143.314,14.494c-0.021,0.508,0.045,0.944,0.197,1.313c0.152,0.368,0.375,0.672,0.668,0.907
		c0.295,0.237,0.641,0.414,1.045,0.527c0.404,0.115,0.848,0.17,1.33,0.17c0.477-0.001,0.887-0.048,1.227-0.135
		c0.344-0.09,0.629-0.206,0.855-0.354c0.229-0.147,0.41-0.309,0.547-0.487c0.139-0.177,0.24-0.353,0.309-0.532
		c0.068-0.179,0.113-0.344,0.135-0.496c0.023-0.152,0.033-0.278,0.031-0.377c-0.002-0.34-0.059-0.63-0.168-0.874
		c-0.109-0.243-0.262-0.447-0.455-0.615c-0.191-0.169-0.414-0.308-0.668-0.419c-0.252-0.114-0.523-0.207-0.813-0.285l-1.979-0.502
		c-0.225-0.053-0.428-0.128-0.611-0.229c-0.186-0.099-0.332-0.232-0.443-0.402c-0.111-0.167-0.17-0.381-0.172-0.64
		c0.002-0.31,0.059-0.568,0.168-0.782c0.111-0.212,0.262-0.381,0.453-0.512c0.188-0.129,0.408-0.222,0.648-0.278
		c0.242-0.058,0.498-0.087,0.764-0.086c0.291,0,0.564,0.04,0.824,0.122c0.262,0.08,0.494,0.199,0.695,0.36
		c0.205,0.158,0.371,0.357,0.492,0.597c0.123,0.239,0.191,0.518,0.205,0.836h0.771c0-0.34-0.051-0.65-0.152-0.924
		c-0.104-0.274-0.248-0.517-0.436-0.723c-0.188-0.208-0.408-0.384-0.66-0.523c-0.252-0.138-0.527-0.244-0.824-0.316
		c-0.295-0.068-0.605-0.104-0.928-0.104c-0.455,0.002-0.846,0.06-1.17,0.165c-0.322,0.107-0.592,0.25-0.803,0.425
		c-0.211,0.178-0.377,0.369-0.498,0.577c-0.119,0.208-0.205,0.417-0.254,0.621c-0.049,0.206-0.074,0.392-0.072,0.559
		c0.002,0.322,0.053,0.597,0.15,0.824c0.1,0.229,0.236,0.42,0.406,0.572c0.17,0.154,0.365,0.278,0.584,0.375
		c0.219,0.098,0.449,0.176,0.688,0.236l1.809,0.455c0.189,0.046,0.383,0.105,0.578,0.182c0.193,0.075,0.375,0.17,0.541,0.287
		c0.164,0.116,0.297,0.26,0.396,0.43c0.1,0.169,0.152,0.372,0.154,0.607c-0.002,0.243-0.049,0.457-0.143,0.642
		c-0.092,0.187-0.215,0.344-0.367,0.479c-0.156,0.132-0.326,0.241-0.514,0.327c-0.189,0.083-0.381,0.145-0.574,0.185
		c-0.195,0.041-0.379,0.06-0.551,0.06c-0.371,0.001-0.721-0.035-1.043-0.108c-0.32-0.075-0.605-0.197-0.848-0.369
		c-0.244-0.171-0.434-0.4-0.566-0.689c-0.133-0.289-0.197-0.647-0.191-1.074h-0.77V14.494z M136.916,9.581h2.887
		c0.387,0.002,0.711,0.07,0.969,0.204c0.262,0.135,0.457,0.325,0.588,0.571c0.129,0.248,0.193,0.542,0.193,0.882
		c-0.002,0.254-0.049,0.482-0.141,0.681c-0.094,0.201-0.221,0.371-0.379,0.512c-0.162,0.139-0.35,0.245-0.559,0.318
		c-0.211,0.075-0.434,0.111-0.674,0.111h-2.887V9.581H136.916z M136.141,17.237h0.773v-3.7h2.934
		c0.291-0.011,0.535,0.029,0.725,0.114c0.193,0.088,0.348,0.211,0.461,0.369c0.115,0.16,0.201,0.345,0.26,0.554
		c0.061,0.208,0.1,0.43,0.127,0.663c0.023,0.233,0.043,0.469,0.053,0.706c0.006,0.088,0.012,0.189,0.02,0.302
		c0.006,0.115,0.016,0.232,0.023,0.352c0.014,0.124,0.035,0.238,0.064,0.349c0.023,0.111,0.063,0.207,0.109,0.292h0.854
		c-0.068-0.085-0.123-0.195-0.166-0.329c-0.043-0.134-0.078-0.28-0.105-0.439c-0.021-0.162-0.045-0.323-0.055-0.49
		c-0.014-0.166-0.023-0.325-0.031-0.477c-0.006-0.152-0.014-0.284-0.018-0.4c-0.016-0.332-0.068-0.632-0.16-0.897
		c-0.088-0.264-0.234-0.483-0.438-0.654c-0.199-0.171-0.477-0.28-0.824-0.328v-0.023c0.348-0.074,0.641-0.21,0.875-0.411
		c0.232-0.2,0.408-0.448,0.527-0.742s0.178-0.621,0.178-0.971c-0.002-0.376-0.07-0.7-0.197-0.975
		c-0.129-0.274-0.307-0.499-0.533-0.675c-0.227-0.178-0.488-0.31-0.785-0.395c-0.295-0.083-0.615-0.127-0.951-0.127h-3.717v8.332
		H136.141z M128.061,13.071c0-0.368,0.035-0.728,0.111-1.08c0.076-0.354,0.188-0.687,0.346-0.998
		c0.156-0.31,0.354-0.583,0.594-0.822c0.242-0.238,0.531-0.425,0.863-0.559c0.332-0.137,0.711-0.203,1.143-0.207
		c0.428,0.004,0.809,0.07,1.139,0.207c0.33,0.134,0.617,0.32,0.855,0.559c0.244,0.24,0.441,0.513,0.598,0.822
		c0.154,0.312,0.27,0.644,0.344,0.998c0.076,0.352,0.111,0.711,0.111,1.08c0,0.365-0.035,0.727-0.111,1.08
		c-0.074,0.354-0.189,0.686-0.344,0.997c-0.156,0.31-0.354,0.583-0.598,0.822c-0.238,0.239-0.525,0.426-0.855,0.56
		c-0.33,0.135-0.711,0.205-1.139,0.207c-0.432-0.001-0.811-0.072-1.143-0.207c-0.332-0.134-0.621-0.32-0.863-0.56
		c-0.24-0.238-0.438-0.512-0.594-0.822c-0.156-0.311-0.27-0.643-0.346-0.997C128.096,13.798,128.061,13.436,128.061,13.071
		L128.061,13.071z M127.287,13.071c0,0.456,0.053,0.898,0.152,1.324c0.104,0.427,0.254,0.823,0.459,1.188s0.459,0.685,0.766,0.956
		c0.307,0.275,0.666,0.489,1.072,0.64c0.41,0.155,0.869,0.232,1.381,0.233c0.51-0.001,0.969-0.078,1.377-0.233
		c0.406-0.151,0.764-0.365,1.068-0.64c0.307-0.271,0.561-0.59,0.764-0.956c0.203-0.364,0.357-0.761,0.457-1.188
		c0.104-0.426,0.154-0.868,0.154-1.324c0-0.458-0.053-0.899-0.154-1.325c-0.1-0.428-0.254-0.822-0.457-1.187
		c-0.203-0.366-0.457-0.685-0.764-0.958c-0.307-0.274-0.662-0.488-1.068-0.639c-0.408-0.153-0.867-0.232-1.377-0.234
		c-0.512,0.002-0.971,0.081-1.381,0.234c-0.406,0.151-0.766,0.365-1.072,0.639c-0.307,0.273-0.561,0.591-0.766,0.958
		c-0.205,0.364-0.355,0.759-0.459,1.187C127.338,12.172,127.287,12.612,127.287,13.071L127.287,13.071z M120.523,9.581V8.904h6.434
		v0.677h-2.83v7.656h-0.773V9.581H120.523L120.523,9.581z M116.34,17.237h5.32V16.56h-4.549V8.904h-0.771V17.237L116.34,17.237z
		 M111.953,9.698l1.566,4.271h-3.193L111.953,9.698L111.953,9.698z M108.279,17.237h0.83l0.979-2.591h3.695l0.988,2.591h0.83
		l-3.184-8.333h-0.865L108.279,17.237L108.279,17.237z M102.438,17.237h5.66V16.56h-4.887v-3.29h4.521v-0.678h-4.521V9.581h4.83
		V8.904h-5.604V17.237L102.438,17.237z M95.629,9.581h2.887c0.387,0.002,0.711,0.07,0.971,0.204c0.26,0.135,0.455,0.325,0.584,0.571
		c0.133,0.248,0.195,0.542,0.195,0.882c0,0.254-0.047,0.482-0.139,0.681c-0.094,0.201-0.221,0.371-0.383,0.512
		c-0.16,0.139-0.35,0.245-0.557,0.318c-0.211,0.075-0.434,0.111-0.674,0.111h-2.887V9.581H95.629z M94.855,17.237h0.773v-3.7h2.932
		c0.293-0.011,0.535,0.029,0.727,0.114c0.193,0.088,0.348,0.211,0.461,0.369c0.115,0.16,0.199,0.345,0.26,0.554
		c0.061,0.208,0.1,0.43,0.125,0.663c0.023,0.233,0.043,0.469,0.055,0.706c0.006,0.088,0.012,0.189,0.018,0.302
		c0.006,0.115,0.016,0.232,0.025,0.352c0.016,0.124,0.035,0.238,0.063,0.349c0.025,0.111,0.063,0.207,0.109,0.292h0.855
		c-0.068-0.085-0.123-0.195-0.168-0.329c-0.043-0.134-0.076-0.28-0.104-0.439c-0.023-0.162-0.045-0.323-0.057-0.49
		c-0.014-0.166-0.021-0.325-0.031-0.477c-0.004-0.152-0.012-0.284-0.018-0.4c-0.016-0.332-0.068-0.632-0.16-0.897
		c-0.088-0.264-0.234-0.483-0.436-0.654c-0.199-0.171-0.477-0.28-0.826-0.328v-0.023c0.35-0.074,0.643-0.21,0.877-0.411
		c0.23-0.2,0.408-0.448,0.527-0.742c0.117-0.294,0.176-0.621,0.176-0.971c0-0.376-0.068-0.7-0.197-0.975
		c-0.127-0.274-0.305-0.499-0.531-0.675c-0.229-0.178-0.488-0.31-0.787-0.395c-0.295-0.083-0.611-0.127-0.949-0.127h-3.719V17.237
		L94.855,17.237z"/>
	<path fill="#48254A" d="M45.084,27.167c0.771,0.011,1.453,0.163,2.046,0.457c0.583,0.294,1.087,0.69,1.483,1.188
		c0.405,0.496,0.702,1.045,0.91,1.644c0.208,0.601,0.305,1.209,0.305,1.828c0,0.792-0.168,1.543-0.513,2.274
		c-0.346,0.729-0.871,1.328-1.573,1.806c-0.711,0.468-1.591,0.711-2.659,0.731c-1.108-0.011-2.046-0.225-2.799-0.65
		c-0.761-0.416-1.333-0.984-1.719-1.686c-0.386-0.71-0.584-1.49-0.584-2.354c0-0.913,0.198-1.756,0.584-2.549
		c0.386-0.791,0.958-1.431,1.719-1.93C43.038,27.432,43.977,27.178,45.084,27.167L45.084,27.167z M39.567,22.112
		c0-0.447,0.03-1.004,0.099-1.694c0.069-0.681,0.197-1.401,0.386-2.152c0.188-0.751,0.444-1.441,0.79-2.071
		c0.346-0.629,0.792-1.117,1.335-1.452c0.426-0.224,0.9-0.415,1.434-0.588c0.534-0.172,1.078-0.253,1.651-0.263
		c0.543-0.011,1.087,0.082,1.641,0.273c0.554,0.183,1.068,0.498,1.542,0.934c0.484,0.437,0.88,1.025,1.207,1.776l10.441-0.852
		c-0.287-1.563-0.771-2.893-1.464-4.02c-0.682-1.118-1.492-2.051-2.442-2.803c-0.949-0.751-1.958-1.36-3.025-1.816
		c-1.078-0.448-2.135-0.792-3.204-1.024c-1.057-0.234-2.046-0.387-2.966-0.468c-0.91-0.072-1.69-0.112-2.324-0.102
		c-2.214,0.01-4.162,0.313-5.833,0.903c-1.681,0.589-3.116,1.41-4.311,2.456c-1.196,1.045-2.195,2.254-2.985,3.625
		c-0.792,1.358-1.425,2.832-1.879,4.396c-0.455,1.562-0.781,3.156-0.969,4.78c-0.188,1.635-0.287,3.228-0.276,4.791
		c0.009,2.771,0.306,5.166,0.889,7.187c0.583,2.021,1.375,3.727,2.373,5.106c1.008,1.391,2.146,2.506,3.422,3.368
		c1.275,0.875,2.609,1.533,4.014,1.99c1.404,0.457,2.788,0.762,4.172,0.935c1.375,0.162,2.67,0.243,3.875,0.233
		c2.304-0.011,4.332-0.387,6.091-1.117c1.769-0.73,3.243-1.745,4.449-3.034c1.196-1.29,2.106-2.771,2.719-4.458
		c0.613-1.684,0.919-3.48,0.919-5.398c-0.069-1.756-0.484-3.381-1.245-4.852c-0.752-1.474-1.761-2.752-3.017-3.838
		c-1.255-1.085-2.679-1.927-4.251-2.517c-1.582-0.599-3.233-0.904-4.954-0.914c-1.354,0-2.739,0.213-4.172,0.65
		C42.267,20.528,40.892,21.199,39.567,22.112z"/>
	<path fill="#D33593" d="M27.555,34.46c-0.715-2.478-0.957-5.136-0.966-7.708c-0.005-0.772,0.018-1.545,0.059-2.315
		c-0.061-0.035-0.119-0.074-0.182-0.109c0.066-0.04,0.13-0.08,0.193-0.121c0.05-0.827,0.125-1.654,0.219-2.478
		c0.2-1.728,0.548-3.431,1.033-5.097c0.303-1.043,0.683-2.059,1.135-3.04c-0.513-0.894-1.197-1.731-2.063-2.501
		c-1.088-0.963-2.454-1.75-4.113-2.356c-1.651-0.604-3.596-0.943-5.827-1.007c-1.9,0-3.666,0.238-5.308,0.724
		c-1.642,0.485-3.087,1.209-4.336,2.172c-1.258,0.971-2.257,2.188-2.998,3.646c-0.75,1.455-1.169,3.159-1.276,5.11h9.314
		c0.115-0.861,0.402-1.539,0.847-2.042c0.447-0.513,0.964-0.879,1.571-1.099c0.607-0.221,1.214-0.33,1.812-0.321
		c0.33,0,0.66,0.027,1,0.074c0.329,0.044,0.624,0.119,0.874,0.201c0.643,0.339,1.115,0.742,1.419,1.209
		c0.303,0.467,0.455,0.925,0.455,1.374c-0.009,0.458-0.161,0.906-0.455,1.347c-0.294,0.439-0.696,0.842-1.205,1.2
		c-0.508,0.357-1.079,0.651-1.731,0.861c-0.642,0.211-1.312,0.321-2.016,0.33c-0.107,0-0.206-0.008-0.295-0.027
		c-0.088-0.018-0.187-0.027-0.293-0.027v5.716h0.749c1.089,0.01,1.999,0.129,2.73,0.367c0.731,0.246,1.304,0.559,1.731,0.952
		c0.419,0.394,0.723,0.813,0.901,1.272c0.178,0.467,0.267,0.916,0.258,1.364c-0.009,0.476-0.089,0.935-0.232,1.354
		c-0.151,0.432-0.32,0.744-0.518,0.953c-0.49,0.479-1.061,0.844-1.695,1.119c-0.633,0.273-1.267,0.412-1.891,0.42
		c-0.821-0.008-1.589-0.22-2.303-0.643c-0.723-0.412-1.312-0.998-1.767-1.738c-0.445-0.752-0.678-1.621-0.695-2.621H2
		c0.133,2.686,0.785,5.002,1.963,6.944c1.168,1.94,2.829,3.435,4.96,4.488c2.142,1.053,4.72,1.584,7.745,1.594h0.481
		c1.696-0.01,3.266-0.237,4.711-0.696c1.446-0.449,2.748-1.063,3.898-1.851c1.152-0.787,2.133-1.687,2.954-2.702
		c0.123-0.152,0.24-0.306,0.354-0.461C28.429,37.078,27.936,35.779,27.555,34.46z"/>
	
		<linearGradient id="SVGID_2_" gradientUnits="userSpaceOnUse" x1="366.0898" y1="-381.7813" x2="366.0898" y2="-339.3488" gradientTransform="matrix(1 0 0 -1 -288.5 -327.5)">
		<stop  offset="0" style="stop-color:#833A79"/>
		<stop  offset="0.0249" style="stop-color:#813A79"/>
		<stop  offset="0.1835" style="stop-color:#723574"/>
		<stop  offset="0.352" style="stop-color:#653270"/>
		<stop  offset="0.5328" style="stop-color:#5A316D"/>
		<stop  offset="0.7346" style="stop-color:#54306C"/>
		<stop  offset="1" style="stop-color:#532F6B"/>
	</linearGradient>
	<path fill="url(#SVGID_2_)" d="M92.143,22.568l-0.311,0.046l-0.004,0.406l-0.787,0.001l-0.008,1.243l-1.582-0.021l0.01,0.828
		l-0.797-0.021l-0.002,6.521l-0.781,0.041l-0.021,0.352l-1.182,0.042l0.02,0.392l-0.463-0.039l0.047-5.258l-0.781,0.01l0.006,0.388
		l-0.814-0.005v-1.207l-1.479,0.002c-0.105,1.372-0.564,2.643-1.285,3.711l0,0v0.357h-0.254c-0.049,0.063-0.098,0.127-0.148,0.188
		l0,0l-0.018,1.853l-0.381-0.02l0.004-1.383c-1.35,1.419-3.23,2.302-5.315,2.302l0,0c-0.344,0-0.683-0.026-1.015-0.071l0,0
		l0.013,3.219l-0.407,0.076v-3.361c-0.688-0.137-1.342-0.369-1.949-0.686l0,0l-0.05,4.361l-0.441,0.063v-4.703
		c-0.558-0.348-1.067-0.771-1.516-1.254l0,0l-0.027,6.35l-0.38-0.021l-0.041-2.414l-1.563-0.063v-1.195h-0.801l0.02,3.672h-0.401
		l0.015-6.511l-0.396,0.011l-0.016-0.817l-0.39-0.021l-0.016,0.408l-0.387,0.012l0.007,5.268h-1.183v-2.809l-1.243-0.02l0.012-5.7
		L63.278,27.1v-0.424h-0.757l-0.028-0.384l-0.56,0.008c0.757,1.625,1.153,3.369,1.225,5.179l0,0l0.001,0.037v0.039
		c0,1.862-0.265,3.694-0.832,5.457l0,0c3.197,4.004,8.052,6.561,13.486,6.561c9.625,0,17.431-8.014,17.431-17.896
		c0-1.063-0.092-2.104-0.266-3.115l0,0L92.143,22.568z"/>
</g>
</svg>
